<svg xmlns="http://www.w3.org/2000/svg" xmlns:xlink="http://www.w3.org/1999/xlink" version="1.1" width="256" height="256" viewBox="0 0 256 256" xml:space="preserve">

<defs>
</defs>
<g style="stroke: none; stroke-width: 0; stroke-dasharray: none; stroke-linecap: butt; stroke-linejoin: miter; stroke-miterlimit: 10; fill: none; fill-rule: nonzero; opacity: 1;" transform="translate(1.4065934065934016 1.4065934065934016) scale(2.81 2.81)" >
	<path d="M 80.991 88.512 H 10.526 C 5.265 88.512 1 84.247 1 78.985 V 1.488 h 71.983 v 74.21" style="stroke: none; stroke-width: 1; stroke-dasharray: none; stroke-linecap: butt; stroke-linejoin: miter; stroke-miterlimit: 10; fill: rgb(229,228,209); fill-rule: nonzero; opacity: 1;" transform=" matrix(1 0 0 1 0 0) " stroke-linecap="round" />
	<path d="M 80.991 89.512 H 10.526 C 4.722 89.512 0 84.79 0 78.985 V 1.488 c 0 -0.552 0.448 -1 1 -1 h 71.983 c 0.553 0 1 0.448 1 1 v 74.21 c 0 0.553 -0.447 1 -1 1 s -1 -0.447 -1 -1 V 2.488 H 2 v 76.497 c 0 4.701 3.825 8.526 8.526 8.526 h 70.465 c 0.553 0 1 0.447 1 1 S 81.544 89.512 80.991 89.512 z" style="stroke: none; stroke-width: 1; stroke-dasharray: none; stroke-linecap: butt; stroke-linejoin: miter; stroke-miterlimit: 10; fill: rgb(0,0,0); fill-rule: nonzero; opacity: 1;" transform=" matrix(1 0 0 1 0 0) " stroke-linecap="round" />
	<path d="M 20.029 25.181 c -0.339 0 -0.664 -0.173 -0.85 -0.473 l -5.805 -9.353 v 8.825 c 0 0.552 -0.448 1 -1 1 s -1 -0.448 -1 -1 V 11.849 c 0 -0.447 0.296 -0.839 0.726 -0.962 c 0.43 -0.124 0.889 0.055 1.124 0.435 l 5.805 9.353 v -8.825 c 0 -0.552 0.448 -1 1 -1 s 1 0.448 1 1 v 12.333 c 0 0.447 -0.296 0.839 -0.726 0.962 C 20.212 25.169 20.12 25.181 20.029 25.181 z" style="stroke: none; stroke-width: 1; stroke-dasharray: none; stroke-linecap: butt; stroke-linejoin: miter; stroke-miterlimit: 10; fill: rgb(0,0,0); fill-rule: nonzero; opacity: 1;" transform=" matrix(1 0 0 1 0 0) " stroke-linecap="round" />
	<path d="M 31.639 25.181 h -5.467 c -0.552 0 -1 -0.448 -1 -1 V 11.849 c 0 -0.552 0.448 -1 1 -1 h 5.467 c 0.552 0 1 0.448 1 1 s -0.448 1 -1 1 h -4.467 v 10.333 h 4.467 c 0.552 0 1 0.448 1 1 S 32.191 25.181 31.639 25.181 z" style="stroke: none; stroke-width: 1; stroke-dasharray: none; stroke-linecap: butt; stroke-linejoin: miter; stroke-miterlimit: 10; fill: rgb(0,0,0); fill-rule: nonzero; opacity: 1;" transform=" matrix(1 0 0 1 0 0) " stroke-linecap="round" />
	<path d="M 29.748 19.015 h -3.576 c -0.552 0 -1 -0.448 -1 -1 s 0.448 -1 1 -1 h 3.576 c 0.552 0 1 0.448 1 1 S 30.3 19.015 29.748 19.015 z" style="stroke: none; stroke-width: 1; stroke-dasharray: none; stroke-linecap: butt; stroke-linejoin: miter; stroke-miterlimit: 10; fill: rgb(0,0,0); fill-rule: nonzero; opacity: 1;" transform=" matrix(1 0 0 1 0 0) " stroke-linecap="round" />
	<path d="M 46.946 25.181 c -0.403 0 -0.77 -0.243 -0.925 -0.619 l -2.619 -6.355 l -2.62 6.355 c -0.164 0.397 -0.566 0.638 -0.991 0.617 c -0.429 -0.029 -0.792 -0.328 -0.9 -0.744 l -3.236 -12.333 c -0.14 -0.534 0.179 -1.081 0.713 -1.221 c 0.535 -0.143 1.081 0.179 1.221 0.713 l 2.479 9.45 l 2.409 -5.843 c 0.154 -0.375 0.519 -0.619 0.924 -0.619 s 0.77 0.245 0.924 0.619 l 2.409 5.843 l 2.479 -9.45 c 0.139 -0.534 0.688 -0.853 1.221 -0.713 c 0.534 0.14 0.854 0.687 0.713 1.221 l -3.235 12.333 c -0.108 0.416 -0.471 0.715 -0.899 0.744 C 46.991 25.18 46.969 25.181 46.946 25.181 z" style="stroke: none; stroke-width: 1; stroke-dasharray: none; stroke-linecap: butt; stroke-linejoin: miter; stroke-miterlimit: 10; fill: rgb(0,0,0); fill-rule: nonzero; opacity: 1;" transform=" matrix(1 0 0 1 0 0) " stroke-linecap="round" />
	<path d="M 59.467 25.181 h -4.024 c -0.553 0 -1 -0.448 -1 -1 s 0.447 -1 1 -1 h 4.024 c 0.63 0 1.142 -0.512 1.142 -1.142 v -1.882 c 0 -0.63 -0.512 -1.142 -1.142 -1.142 h -2.241 c -1.732 0 -3.142 -1.41 -3.142 -3.142 v -1.882 c 0 -1.732 1.409 -3.142 3.142 -3.142 h 2.889 c 0.553 0 1 0.448 1 1 s -0.447 1 -1 1 h -2.889 c -0.63 0 -1.142 0.512 -1.142 1.142 v 1.882 c 0 0.63 0.512 1.142 1.142 1.142 h 2.241 c 1.732 0 3.142 1.41 3.142 3.142 v 1.882 C 62.608 23.772 61.199 25.181 59.467 25.181 z" style="stroke: none; stroke-width: 1; stroke-dasharray: none; stroke-linecap: butt; stroke-linejoin: miter; stroke-miterlimit: 10; fill: rgb(0,0,0); fill-rule: nonzero; opacity: 1;" transform=" matrix(1 0 0 1 0 0) " stroke-linecap="round" />
	<rect x="12.37" y="34.15" rx="0" ry="0" width="24.2" height="11.11" style="stroke: none; stroke-width: 1; stroke-dasharray: none; stroke-linecap: butt; stroke-linejoin: miter; stroke-miterlimit: 10; fill: rgb(249,187,75); fill-rule: nonzero; opacity: 1;" transform=" matrix(1 0 0 1 0 0) "/>
	<path d="M 36.575 46.259 H 12.374 c -0.552 0 -1 -0.448 -1 -1 V 34.153 c 0 -0.552 0.448 -1 1 -1 h 24.201 c 0.552 0 1 0.448 1 1 v 11.105 C 37.575 45.811 37.127 46.259 36.575 46.259 z M 13.374 44.259 h 22.201 v -9.105 H 13.374 V 44.259 z" style="stroke: none; stroke-width: 1; stroke-dasharray: none; stroke-linecap: butt; stroke-linejoin: miter; stroke-miterlimit: 10; fill: rgb(0,0,0); fill-rule: nonzero; opacity: 1;" transform=" matrix(1 0 0 1 0 0) " stroke-linecap="round" />
	<path d="M 61.608 35.153 H 46.293 c -0.552 0 -1 -0.448 -1 -1 s 0.448 -1 1 -1 h 15.315 c 0.553 0 1 0.448 1 1 S 62.161 35.153 61.608 35.153 z" style="stroke: none; stroke-width: 1; stroke-dasharray: none; stroke-linecap: butt; stroke-linejoin: miter; stroke-miterlimit: 10; fill: rgb(0,0,0); fill-rule: nonzero; opacity: 1;" transform=" matrix(1 0 0 1 0 0) " stroke-linecap="round" />
	<path d="M 61.608 46.259 H 46.293 c -0.552 0 -1 -0.448 -1 -1 s 0.448 -1 1 -1 h 15.315 c 0.553 0 1 0.448 1 1 S 62.161 46.259 61.608 46.259 z" style="stroke: none; stroke-width: 1; stroke-dasharray: none; stroke-linecap: butt; stroke-linejoin: miter; stroke-miterlimit: 10; fill: rgb(0,0,0); fill-rule: nonzero; opacity: 1;" transform=" matrix(1 0 0 1 0 0) " stroke-linecap="round" />
	<path d="M 61.608 57.364 H 12.374 c -0.552 0 -1 -0.447 -1 -1 s 0.448 -1 1 -1 h 49.234 c 0.553 0 1 0.447 1 1 S 62.161 57.364 61.608 57.364 z" style="stroke: none; stroke-width: 1; stroke-dasharray: none; stroke-linecap: butt; stroke-linejoin: miter; stroke-miterlimit: 10; fill: rgb(0,0,0); fill-rule: nonzero; opacity: 1;" transform=" matrix(1 0 0 1 0 0) " stroke-linecap="round" />
	<path d="M 72.983 80.503 c 0 4.423 3.586 8.009 8.009 8.009 c 4.423 0 8.009 -3.586 8.009 -8.009 V 14.329 H 72.983 V 80.503 z" style="stroke: none; stroke-width: 1; stroke-dasharray: none; stroke-linecap: butt; stroke-linejoin: miter; stroke-miterlimit: 10; fill: rgb(177,175,141); fill-rule: nonzero; opacity: 1;" transform=" matrix(1 0 0 1 0 0) " stroke-linecap="round" />
	<path d="M 80.991 89.512 c -4.967 0 -9.008 -4.041 -9.008 -9.009 V 14.329 c 0 -0.552 0.447 -1 1 -1 H 89 c 0.553 0 1 0.448 1 1 v 66.174 C 90 85.471 85.959 89.512 80.991 89.512 z M 73.983 15.329 v 65.174 c 0 3.864 3.144 7.009 7.008 7.009 S 88 84.367 88 80.503 V 15.329 H 73.983 z" style="stroke: none; stroke-width: 1; stroke-dasharray: none; stroke-linecap: butt; stroke-linejoin: miter; stroke-miterlimit: 10; fill: rgb(0,0,0); fill-rule: nonzero; opacity: 1;" transform=" matrix(1 0 0 1 0 0) " stroke-linecap="round" />
	<rect x="46.29" y="67.47" rx="0" ry="0" width="15.32" height="11.11" style="stroke: none; stroke-width: 1; stroke-dasharray: none; stroke-linecap: butt; stroke-linejoin: miter; stroke-miterlimit: 10; fill: rgb(69,138,206); fill-rule: nonzero; opacity: 1;" transform=" matrix(-1 -1.224647e-16 1.224647e-16 -1 107.9015 146.0461) "/>
	<path d="M 61.608 79.576 H 46.293 c -0.552 0 -1 -0.447 -1 -1 V 67.471 c 0 -0.553 0.448 -1 1 -1 h 15.315 c 0.553 0 1 0.447 1 1 v 11.105 C 62.608 79.129 62.161 79.576 61.608 79.576 z M 47.293 77.576 h 13.315 v -9.105 H 47.293 V 77.576 z" style="stroke: none; stroke-width: 1; stroke-dasharray: none; stroke-linecap: butt; stroke-linejoin: miter; stroke-miterlimit: 10; fill: rgb(0,0,0); fill-rule: nonzero; opacity: 1;" transform=" matrix(1 0 0 1 0 0) " stroke-linecap="round" />
	<path d="M 36.097 68.471 H 12.374 c -0.552 0 -1 -0.447 -1 -1 s 0.448 -1 1 -1 h 23.723 c 0.552 0 1 0.447 1 1 S 36.649 68.471 36.097 68.471 z" style="stroke: none; stroke-width: 1; stroke-dasharray: none; stroke-linecap: butt; stroke-linejoin: miter; stroke-miterlimit: 10; fill: rgb(0,0,0); fill-rule: nonzero; opacity: 1;" transform=" matrix(1 0 0 1 0 0) " stroke-linecap="round" />
	<path d="M 36.097 79.576 H 12.374 c -0.552 0 -1 -0.447 -1 -1 s 0.448 -1 1 -1 h 23.723 c 0.552 0 1 0.447 1 1 S 36.649 79.576 36.097 79.576 z" style="stroke: none; stroke-width: 1; stroke-dasharray: none; stroke-linecap: butt; stroke-linejoin: miter; stroke-miterlimit: 10; fill: rgb(0,0,0); fill-rule: nonzero; opacity: 1;" transform=" matrix(1 0 0 1 0 0) " stroke-linecap="round" />
</g>
</svg>